<mxfile host="app.diagrams.net" agent="Mozilla/5.0 (Windows NT 10.0; Win64; x64) AppleWebKit/537.36 (KHTML, like Gecko) Chrome/137.0.0.0 Safari/537.36" version="27.2.0">
  <diagram name="Página-1" id="gO0n4lnfn7vyVWT8nTL-">
    <mxGraphModel dx="2852" dy="1486" grid="1" gridSize="10" guides="1" tooltips="1" connect="1" arrows="1" fold="1" page="1" pageScale="1" pageWidth="827" pageHeight="1169" background="light-dark(#FFFFFF,#FFFFFF)" math="0" shadow="0">
      <root>
        <mxCell id="0" />
        <mxCell id="1" parent="0" />
        <mxCell id="byCB-gPyPLAGABj2QcFf-25" value="Entorno Docker del Pipeline    " style="whiteSpace=wrap;strokeWidth=3;fillColor=#1ba1e2;fontColor=#ffffff;strokeColor=light-dark(#006EAF,#000000);fontSize=21;fontStyle=1;align=right;" vertex="1" parent="1">
          <mxGeometry x="836" y="330" width="1377" height="588" as="geometry" />
        </mxCell>
        <mxCell id="byCB-gPyPLAGABj2QcFf-26" value="" style="whiteSpace=wrap;strokeWidth=3;fillColor=#1ba1e2;fontColor=#ffffff;strokeColor=light-dark(#006EAF,#000000);fontSize=16;fontStyle=1" vertex="1" parent="1">
          <mxGeometry x="1020" y="360" width="620" height="124" as="geometry" />
        </mxCell>
        <mxCell id="byCB-gPyPLAGABj2QcFf-27" value="Lógica de main.py" style="whiteSpace=wrap;strokeWidth=3;fillColor=#1ba1e2;fontColor=#ffffff;strokeColor=light-dark(#006EAF,#000000);fontSize=16;fontStyle=1" vertex="1" parent="1">
          <mxGeometry x="1029" y="650" width="620" height="258" as="geometry" />
        </mxCell>
        <mxCell id="byCB-gPyPLAGABj2QcFf-28" value="Carpeta de Grabaciones de Jibri&#xa;(Host Debian)" style="whiteSpace=wrap;strokeWidth=3;fillColor=#1ba1e2;fontColor=#ffffff;strokeColor=light-dark(#006EAF,#000000);fontSize=16;fontStyle=1" vertex="1" parent="1">
          <mxGeometry x="260" y="655" width="260" height="102" as="geometry" />
        </mxCell>
        <mxCell id="byCB-gPyPLAGABj2QcFf-29" value="Volumen Compartido&#xa;Mapeo de Directorio" style="whiteSpace=wrap;strokeWidth=3;fillColor=#1ba1e2;fontColor=#ffffff;strokeColor=light-dark(#006EAF,#000000);fontSize=16;fontStyle=1" vertex="1" parent="1">
          <mxGeometry x="570" y="667" width="216" height="78" as="geometry" />
        </mxCell>
        <mxCell id="byCB-gPyPLAGABj2QcFf-30" value="main.py" style="whiteSpace=wrap;strokeWidth=3;fillColor=#1ba1e2;fontColor=#ffffff;strokeColor=light-dark(#006EAF,#000000);fontSize=16;fontStyle=1" vertex="1" parent="1">
          <mxGeometry x="861" y="679" width="118" height="54" as="geometry" />
        </mxCell>
        <mxCell id="byCB-gPyPLAGABj2QcFf-31" value="1. Lee .mp4 vía volumen" style="whiteSpace=wrap;strokeWidth=3;fillColor=#1ba1e2;fontColor=#ffffff;strokeColor=light-dark(#006EAF,#000000);fontSize=16;fontStyle=1" vertex="1" parent="1">
          <mxGeometry x="1054" y="795" width="260" height="78" as="geometry" />
        </mxCell>
        <mxCell id="byCB-gPyPLAGABj2QcFf-32" value="2. Envía trabajo a Spark" style="whiteSpace=wrap;strokeWidth=3;fillColor=#1ba1e2;fontColor=#ffffff;strokeColor=light-dark(#006EAF,#000000);fontSize=16;fontStyle=1" vertex="1" parent="1">
          <mxGeometry x="1364" y="795" width="260" height="78" as="geometry" />
        </mxCell>
        <mxCell id="byCB-gPyPLAGABj2QcFf-33" value="3. Mueve original a &#39;archived&#39;" style="whiteSpace=wrap;strokeWidth=3;fillColor=#1ba1e2;fontColor=#ffffff;strokeColor=light-dark(#006EAF,#000000);fontSize=16;fontStyle=1" vertex="1" parent="1">
          <mxGeometry x="1054" y="667" width="260" height="78" as="geometry" />
        </mxCell>
        <mxCell id="byCB-gPyPLAGABj2QcFf-34" value="Tarea de Spark + OpenCV&#xa;(en spark-worker)" style="whiteSpace=wrap;strokeWidth=3;fillColor=#1ba1e2;fontColor=#ffffff;strokeColor=light-dark(#006EAF,#000000);fontSize=16;fontStyle=1" vertex="1" parent="1">
          <mxGeometry x="1699" y="795" width="240" height="78" as="geometry" />
        </mxCell>
        <mxCell id="byCB-gPyPLAGABj2QcFf-35" value="Vídeo Procesado&#xa;(en .../processed/)" style="whiteSpace=wrap;strokeWidth=3;fillColor=#1ba1e2;fontColor=#ffffff;strokeColor=light-dark(#006EAF,#000000);fontSize=16;fontStyle=1" vertex="1" parent="1">
          <mxGeometry x="1989" y="795" width="199" height="78" as="geometry" />
        </mxCell>
        <mxCell id="byCB-gPyPLAGABj2QcFf-36" value="Vídeo Archivado&#xa;(en .../archived/)" style="whiteSpace=wrap;strokeWidth=3;fillColor=#1ba1e2;fontColor=#ffffff;strokeColor=light-dark(#006EAF,#000000);fontSize=16;fontStyle=1" vertex="1" parent="1">
          <mxGeometry x="1420" y="519" width="190" height="78" as="geometry" />
        </mxCell>
        <mxCell id="byCB-gPyPLAGABj2QcFf-37" value="Produce evento en Kafka" style="whiteSpace=wrap;strokeWidth=3;fillColor=#1ba1e2;fontColor=#ffffff;strokeColor=light-dark(#006EAF,#000000);fontSize=16;fontStyle=1" vertex="1" parent="1">
          <mxGeometry x="1065" y="395" width="238" height="54" as="geometry" />
        </mxCell>
        <mxCell id="byCB-gPyPLAGABj2QcFf-38" value="Consume evento" style="whiteSpace=wrap;strokeWidth=3;fillColor=#1ba1e2;fontColor=#ffffff;strokeColor=light-dark(#006EAF,#000000);fontSize=16;fontStyle=1" vertex="1" parent="1">
          <mxGeometry x="1405" y="395" width="178" height="54" as="geometry" />
        </mxCell>
        <mxCell id="byCB-gPyPLAGABj2QcFf-39" value="" style="curved=1;startArrow=none;endArrow=block;exitX=1;exitY=0.5;entryX=0;entryY=0.5;rounded=0;fillColor=#1ba1e2;strokeColor=light-dark(#006EAF,#000000);strokeWidth=3;fontSize=16;fontStyle=1" edge="1" parent="1" source="byCB-gPyPLAGABj2QcFf-28" target="byCB-gPyPLAGABj2QcFf-29">
          <mxGeometry relative="1" as="geometry">
            <Array as="points" />
          </mxGeometry>
        </mxCell>
        <mxCell id="byCB-gPyPLAGABj2QcFf-40" value="" style="curved=1;startArrow=none;endArrow=block;exitX=1;exitY=0.5;entryX=0;entryY=0.5;rounded=0;fillColor=#1ba1e2;strokeColor=light-dark(#006EAF,#000000);strokeWidth=3;fontSize=16;fontStyle=1" edge="1" parent="1" source="byCB-gPyPLAGABj2QcFf-29" target="byCB-gPyPLAGABj2QcFf-30">
          <mxGeometry relative="1" as="geometry">
            <Array as="points" />
          </mxGeometry>
        </mxCell>
        <mxCell id="byCB-gPyPLAGABj2QcFf-41" value="" style="curved=1;startArrow=none;endArrow=block;exitX=0.65;exitY=1;entryX=0;entryY=0.5;rounded=0;fillColor=#1ba1e2;strokeColor=light-dark(#006EAF,#000000);strokeWidth=3;fontSize=16;fontStyle=1" edge="1" parent="1" source="byCB-gPyPLAGABj2QcFf-30" target="byCB-gPyPLAGABj2QcFf-31">
          <mxGeometry relative="1" as="geometry">
            <Array as="points">
              <mxPoint x="1004" y="834" />
            </Array>
          </mxGeometry>
        </mxCell>
        <mxCell id="byCB-gPyPLAGABj2QcFf-42" value="" style="curved=1;startArrow=none;endArrow=block;exitX=1;exitY=0.5;entryX=0;entryY=0.5;rounded=0;fillColor=#1ba1e2;strokeColor=light-dark(#006EAF,#000000);strokeWidth=3;fontSize=16;fontStyle=1" edge="1" parent="1" source="byCB-gPyPLAGABj2QcFf-31" target="byCB-gPyPLAGABj2QcFf-32">
          <mxGeometry relative="1" as="geometry">
            <Array as="points" />
          </mxGeometry>
        </mxCell>
        <mxCell id="byCB-gPyPLAGABj2QcFf-43" value="" style="curved=1;startArrow=none;endArrow=block;exitX=1;exitY=0.5;entryX=0;entryY=0.5;rounded=0;fillColor=#1ba1e2;strokeColor=light-dark(#006EAF,#000000);strokeWidth=3;fontSize=16;fontStyle=1" edge="1" parent="1" source="byCB-gPyPLAGABj2QcFf-32" target="byCB-gPyPLAGABj2QcFf-34">
          <mxGeometry relative="1" as="geometry">
            <Array as="points" />
          </mxGeometry>
        </mxCell>
        <mxCell id="byCB-gPyPLAGABj2QcFf-44" value="" style="curved=1;startArrow=none;endArrow=block;exitX=1;exitY=0.5;entryX=0;entryY=0.5;rounded=0;fillColor=#1ba1e2;strokeColor=light-dark(#006EAF,#000000);strokeWidth=3;fontSize=16;fontStyle=1" edge="1" parent="1" source="byCB-gPyPLAGABj2QcFf-34" target="byCB-gPyPLAGABj2QcFf-35">
          <mxGeometry relative="1" as="geometry">
            <Array as="points" />
          </mxGeometry>
        </mxCell>
        <mxCell id="byCB-gPyPLAGABj2QcFf-45" value="" style="curved=1;startArrow=none;endArrow=block;exitX=1;exitY=0.5;entryX=0;entryY=0.5;rounded=0;fillColor=#1ba1e2;strokeColor=light-dark(#006EAF,#000000);strokeWidth=3;fontSize=16;fontStyle=1" edge="1" parent="1" source="byCB-gPyPLAGABj2QcFf-30" target="byCB-gPyPLAGABj2QcFf-33">
          <mxGeometry relative="1" as="geometry">
            <Array as="points" />
          </mxGeometry>
        </mxCell>
        <mxCell id="byCB-gPyPLAGABj2QcFf-46" value="" style="curved=1;startArrow=none;endArrow=block;exitX=1;exitY=0.5;entryX=0.28;entryY=1;rounded=0;fillColor=#1ba1e2;strokeColor=light-dark(#006EAF,#000000);strokeWidth=3;fontSize=16;fontStyle=1" edge="1" parent="1" source="byCB-gPyPLAGABj2QcFf-33" target="byCB-gPyPLAGABj2QcFf-36">
          <mxGeometry relative="1" as="geometry">
            <Array as="points">
              <mxPoint x="1339" y="706" />
            </Array>
          </mxGeometry>
        </mxCell>
        <mxCell id="byCB-gPyPLAGABj2QcFf-47" value="" style="curved=1;dashed=1;dashPattern=2 3;startArrow=none;endArrow=block;exitX=0.57;exitY=0;entryX=0;entryY=0.5;rounded=0;fillColor=#1ba1e2;strokeColor=light-dark(#006EAF,#000000);strokeWidth=3;fontSize=16;fontStyle=1" edge="1" parent="1" source="byCB-gPyPLAGABj2QcFf-30" target="byCB-gPyPLAGABj2QcFf-37">
          <mxGeometry relative="1" as="geometry">
            <Array as="points">
              <mxPoint x="1004" y="422" />
            </Array>
          </mxGeometry>
        </mxCell>
        <mxCell id="byCB-gPyPLAGABj2QcFf-48" value="" style="curved=1;dashed=1;dashPattern=2 3;startArrow=none;endArrow=block;exitX=1;exitY=0.5;entryX=0;entryY=0.5;rounded=0;fillColor=#1ba1e2;strokeColor=light-dark(#006EAF,#000000);strokeWidth=3;fontSize=16;fontStyle=1" edge="1" parent="1" source="byCB-gPyPLAGABj2QcFf-37" target="byCB-gPyPLAGABj2QcFf-38">
          <mxGeometry relative="1" as="geometry">
            <Array as="points" />
          </mxGeometry>
        </mxCell>
      </root>
    </mxGraphModel>
  </diagram>
</mxfile>
